<svg width="62" height="61" viewBox="0 0 62 61" fill="none" xmlns="http://www.w3.org/2000/svg">
<path d="M34.1121 18.1221C33.8739 18.3584 33.6848 18.6395 33.5558 18.9493C33.4267 19.259 33.3603 19.5912 33.3603 19.9267C33.3603 20.2623 33.4267 20.5945 33.5558 20.9042C33.6848 21.2139 33.8739 21.495 34.1121 21.7313L38.9921 26.6113C39.2284 26.8495 39.5095 27.0386 39.8193 27.1677C40.129 27.2967 40.4612 27.3631 40.7967 27.3631C41.1322 27.3631 41.4645 27.2967 41.7742 27.1677C42.0839 27.0386 42.365 26.8495 42.6013 26.6113L52.9713 16.2413C53.2492 16.0155 53.4763 15.7335 53.6376 15.4137C53.7989 15.094 53.8909 14.7438 53.9074 14.3861C53.9239 14.0284 53.8647 13.6712 53.7336 13.3379C53.6024 13.0047 53.4023 12.703 53.1464 12.4524C52.8905 12.2019 52.5845 12.0083 52.2486 11.8843C51.9126 11.7603 51.5542 11.7087 51.1969 11.7329C50.8396 11.7571 50.4915 11.8564 50.1753 12.0246C49.8591 12.1927 49.582 12.4257 49.3621 12.7084L40.7967 21.223L37.7213 18.1221C37.485 17.8839 37.2039 17.6948 36.8942 17.5658C36.5845 17.4368 36.2522 17.3703 35.9167 17.3703C35.5812 17.3703 35.249 17.4368 34.9393 17.5658C34.6295 17.6948 34.3484 17.8839 34.1121 18.1221ZM50.938 27.0434C50.2676 27.1016 49.6477 27.4232 49.2141 27.9378C48.7805 28.4524 48.5687 29.1179 48.6251 29.7884C48.6377 30.0254 48.6377 30.263 48.6251 30.5001C48.6251 35.2187 46.7506 39.7441 43.414 43.0807C40.0774 46.4173 35.552 48.2917 30.8334 48.2917H16.6255L18.2521 46.6905C18.7255 46.2143 18.9912 45.5701 18.9912 44.8986C18.9912 44.2271 18.7255 43.5829 18.2521 43.1067C15.979 40.8459 14.359 38.0129 13.5634 34.9072C12.7678 31.8015 12.8262 28.5385 13.7324 25.4632C14.6386 22.3879 16.3588 19.6147 18.7114 17.4366C21.0639 15.2585 23.9613 13.7566 27.0971 13.0896C29.4461 12.6199 31.8648 12.6199 34.2138 13.0896C34.5476 13.1564 34.8912 13.1568 35.2251 13.0907C35.5591 13.0246 35.8767 12.8935 36.1599 12.7047C36.4431 12.5158 36.6864 12.2731 36.8758 11.9903C37.0652 11.7074 37.197 11.3901 37.2638 11.0563C37.3306 10.7225 37.3309 10.3789 37.2649 10.045C37.1988 9.71105 37.0676 9.39341 36.8788 9.11019C36.69 8.82697 36.4473 8.58372 36.1644 8.39431C35.8816 8.20491 35.5642 8.07307 35.2305 8.00631C32.2023 7.39699 29.0832 7.39699 26.055 8.00631C20.9239 9.12634 16.3306 11.9686 13.0384 16.0606C9.74629 20.1527 7.95363 25.2481 7.95838 30.5001C7.97973 35.7009 9.77272 40.7392 13.0417 44.7842L8.69547 49.0288C8.34279 49.3862 8.10388 49.8401 8.00889 50.3332C7.9139 50.8262 7.96708 51.3364 8.16172 51.7992C8.35239 52.2634 8.6762 52.6607 9.09232 52.9411C9.50844 53.2216 9.99826 53.3726 10.5001 53.3751H30.8334C36.9002 53.3751 42.7186 50.965 47.0084 46.6751C51.2983 42.3852 53.7084 36.5669 53.7084 30.5001C53.7084 30.1188 53.7084 29.763 53.7084 29.3817C53.6828 29.0452 53.5905 28.7172 53.4369 28.4167C53.2832 28.1163 53.0713 27.8494 52.8134 27.6318C52.5555 27.4141 52.2568 27.25 51.9348 27.149C51.6129 27.0479 51.274 27.0121 50.938 27.0434Z" fill="#B3B3B3"/>
</svg>
