<svg width="62" height="61" viewBox="0 0 62 61" fill="none" xmlns="http://www.w3.org/2000/svg">
<path d="M37.7468 22.3412L26.843 33.2703L22.6493 29.0766C22.4214 28.8105 22.141 28.5944 21.8257 28.4419C21.5104 28.2893 21.1669 28.2036 20.8169 28.1901C20.4668 28.1765 20.1178 28.2355 19.7916 28.3633C19.4654 28.4911 19.1692 28.6849 18.9215 28.9326C18.6738 29.1803 18.48 29.4765 18.3522 29.8027C18.2244 30.1288 18.1655 30.4779 18.179 30.8279C18.1925 31.178 18.2782 31.5214 18.4308 31.8368C18.5833 32.1521 18.7994 32.4325 19.0655 32.6603L25.0384 38.6587C25.2759 38.8942 25.5576 39.0806 25.8672 39.2071C26.1769 39.3336 26.5085 39.3977 26.843 39.3958C27.5098 39.3929 28.1488 39.1282 28.6222 38.6587L41.3305 25.9503C41.5687 25.7141 41.7578 25.4329 41.8869 25.1232C42.0159 24.8135 42.0823 24.4813 42.0823 24.1458C42.0823 23.8102 42.0159 23.478 41.8869 23.1683C41.7578 22.8586 41.5687 22.5774 41.3305 22.3412C40.8543 21.8678 40.2101 21.6021 39.5386 21.6021C38.8672 21.6021 38.223 21.8678 37.7468 22.3412ZM30.8334 5.08325C25.8065 5.08325 20.8924 6.57391 16.7127 9.36673C12.5329 12.1596 9.27522 16.1291 7.35149 20.7734C5.42776 25.4177 4.92443 30.5281 5.90513 35.4585C6.88584 40.3888 9.30654 44.9176 12.8611 48.4722C16.4157 52.0268 20.9445 54.4475 25.8749 55.4282C30.8052 56.4089 35.9157 55.9056 40.56 53.9819C45.2043 52.0581 49.1738 48.8004 51.9666 44.6207C54.7594 40.4409 56.2501 35.5269 56.2501 30.4999C56.2501 27.1622 55.5927 23.8571 54.3154 20.7734C53.0381 17.6897 51.1659 14.8878 48.8057 12.5276C46.4456 10.1675 43.6437 8.29529 40.56 7.01798C37.4763 5.74067 34.1712 5.08325 30.8334 5.08325ZM30.8334 50.8333C26.8119 50.8333 22.8806 49.6407 19.5368 47.4065C16.193 45.1722 13.5869 41.9966 12.0479 38.2811C10.5089 34.5657 10.1062 30.4774 10.8908 26.5331C11.6754 22.5888 13.6119 18.9657 16.4556 16.1221C19.2993 13.2784 22.9223 11.3419 26.8666 10.5573C30.8109 9.77272 34.8992 10.1754 38.6147 11.7144C42.3301 13.2534 45.5057 15.8595 47.74 19.2033C49.9742 22.5471 51.1668 26.4784 51.1668 30.4999C51.1668 35.8927 49.0245 41.0645 45.2113 44.8778C41.398 48.691 36.2262 50.8333 30.8334 50.8333Z" fill="#B3B3B3"/>
</svg>
