<svg width="61" height="61" viewBox="0 0 61 61" fill="none" xmlns="http://www.w3.org/2000/svg">
<path d="M15.25 33.0417H5.08335C4.40926 33.0417 3.76278 33.3095 3.28612 33.7862C2.80947 34.2628 2.54169 34.9093 2.54169 35.5834V55.9167C2.54169 56.5908 2.80947 57.2373 3.28612 57.714C3.76278 58.1906 4.40926 58.4584 5.08335 58.4584H15.25C15.9241 58.4584 16.5706 58.1906 17.0472 57.714C17.5239 57.2373 17.7917 56.5908 17.7917 55.9167V35.5834C17.7917 34.9093 17.5239 34.2628 17.0472 33.7862C16.5706 33.3095 15.9241 33.0417 15.25 33.0417ZM12.7084 53.3751H7.62502V38.1251H12.7084V53.3751ZM55.9167 22.8751H45.75C45.0759 22.8751 44.4294 23.1429 43.9528 23.6195C43.4761 24.0962 43.2084 24.7427 43.2084 25.4167V55.9167C43.2084 56.5908 43.4761 57.2373 43.9528 57.714C44.4294 58.1906 45.0759 58.4584 45.75 58.4584H55.9167C56.5908 58.4584 57.2373 58.1906 57.7139 57.714C58.1906 57.2373 58.4584 56.5908 58.4584 55.9167V25.4167C58.4584 24.7427 58.1906 24.0962 57.7139 23.6195C57.2373 23.1429 56.5908 22.8751 55.9167 22.8751ZM53.375 53.3751H48.2917V27.9584H53.375V53.3751ZM35.5834 2.54175H25.4167C24.7426 2.54175 24.0961 2.80953 23.6195 3.28618C23.1428 3.76284 22.875 4.40932 22.875 5.08341V55.9167C22.875 56.5908 23.1428 57.2373 23.6195 57.714C24.0961 58.1906 24.7426 58.4584 25.4167 58.4584H35.5834C36.2574 58.4584 36.9039 58.1906 37.3806 57.714C37.8572 57.2373 38.125 56.5908 38.125 55.9167V5.08341C38.125 4.40932 37.8572 3.76284 37.3806 3.28618C36.9039 2.80953 36.2574 2.54175 35.5834 2.54175ZM33.0417 53.3751H27.9584V7.62508H33.0417V53.3751Z" fill="#B3B3B3"/>
</svg>
