<svg width="61" height="61" viewBox="0 0 61 61" fill="none" xmlns="http://www.w3.org/2000/svg">
<path d="M25.4169 44.6064L20.9182 48.9781C19.7385 50.1578 18.1385 50.8205 16.4702 50.8205C14.8019 50.8205 13.202 50.1578 12.0223 48.9781C10.8427 47.7985 10.1799 46.1985 10.1799 44.5302C10.1799 42.8619 10.8427 41.2619 12.0223 40.0823L23.5615 28.5177C24.6941 27.3814 26.2201 26.724 27.8239 26.6814C29.4277 26.6388 30.9864 27.2144 32.1777 28.2889L32.4827 28.5431C32.9647 29.015 33.6144 29.2761 34.2889 29.2689C34.9633 29.2618 35.6073 28.987 36.0792 28.505C36.5511 28.023 36.8121 27.3733 36.805 26.6989C36.7978 26.0244 36.523 25.3804 36.0411 24.9085C35.8976 24.7231 35.7449 24.5449 35.5836 24.3748C33.4139 22.4871 30.6078 21.4947 27.7338 21.5985C24.8598 21.7023 22.1326 22.8947 20.1048 24.934L8.41315 36.4985C6.42647 38.661 5.35202 41.5073 5.41417 44.4432C5.47633 47.379 6.67028 50.1773 8.7467 52.2537C10.8231 54.3302 13.6214 55.5241 16.5573 55.5863C19.4931 55.6484 22.3395 54.574 24.5019 52.5873L28.899 48.2919C29.3331 47.8182 29.5718 47.1977 29.567 46.5552C29.5621 45.9127 29.3141 45.2959 28.8728 44.8289C28.4316 44.3619 27.8298 44.0793 27.1886 44.038C26.5474 43.9967 25.9144 44.1998 25.4169 44.6064ZM52.5873 8.41312C50.4492 6.2883 47.5573 5.0957 44.5429 5.0957C41.5286 5.0957 38.6367 6.2883 36.4986 8.41312L32.1015 12.7085C31.6673 13.1822 31.4287 13.8027 31.4335 14.4452C31.4384 15.0877 31.6864 15.7045 32.1276 16.1715C32.5689 16.6385 33.1707 16.9211 33.8119 16.9624C34.4531 17.0037 35.0861 16.8006 35.5836 16.3939L39.9807 12.0223C41.1603 10.8426 42.7603 10.1799 44.4286 10.1799C46.0969 10.1799 47.6968 10.8426 48.8765 12.0223C50.0561 13.2019 50.7189 14.8019 50.7189 16.4702C50.7189 18.1385 50.0561 19.7385 48.8765 20.9181L37.3373 32.4827C36.2047 33.619 34.6787 34.2764 33.0749 34.319C31.4711 34.3616 29.9124 33.786 28.7211 32.7115L28.4161 32.4573C27.9341 31.9854 27.2844 31.7243 26.6099 31.7315C25.9355 31.7386 25.2915 32.0134 24.8196 32.4954C24.3477 32.9774 24.0867 33.6271 24.0938 34.3015C24.101 34.976 24.3758 35.62 24.8577 36.0919C25.0424 36.2807 25.2375 36.4589 25.4423 36.6256C27.6146 38.5076 30.4195 39.4963 33.2917 39.3925C36.164 39.2888 38.8902 38.1003 40.9211 36.0665L52.4857 24.5019C54.624 22.3772 55.8349 19.4928 55.854 16.4785C55.873 13.4641 54.6987 10.5646 52.5873 8.41312Z" fill="#B3B3B3"/>
</svg>
