<svg width="62" height="61" viewBox="0 0 62 61" fill="none" xmlns="http://www.w3.org/2000/svg">
<path d="M54.7503 21.9598C54.7503 21.9598 54.7503 21.9597 54.7503 21.8327C52.9594 16.9431 49.71 12.7215 45.4414 9.73907C41.1729 6.75663 36.0913 5.15723 30.8841 5.15723C25.6768 5.15723 20.5952 6.75663 16.3267 9.73907C12.0581 12.7215 8.80866 16.9431 7.0178 21.8327C7.0178 21.8327 7.0178 21.8327 7.0178 21.9598C5.01783 27.4774 5.01783 33.5221 7.0178 39.0397C7.0178 39.0397 7.0178 39.0397 7.0178 39.1668C8.80866 44.0564 12.0581 48.278 16.3267 51.2604C20.5952 54.2429 25.6768 55.8423 30.8841 55.8423C36.0913 55.8423 41.1729 54.2429 45.4414 51.2604C49.71 48.278 52.9594 44.0564 54.7503 39.1668C54.7503 39.1668 54.7503 39.1668 54.7503 39.0397C56.7503 33.5221 56.7503 27.4774 54.7503 21.9598ZM11.1607 35.5831C10.2793 32.2515 10.2793 28.748 11.1607 25.4164H15.8882C15.4816 28.7931 15.4816 32.2064 15.8882 35.5831H11.1607ZM13.2449 40.6664H16.8032C17.3998 42.9332 18.2525 45.1247 19.3449 47.1985C16.8523 45.5005 14.7686 43.2692 13.2449 40.6664ZM16.8032 20.3331H13.2449C14.7467 17.7383 16.8037 15.5076 19.2686 13.801C18.2025 15.8782 17.3755 18.0695 16.8032 20.3331ZM28.2916 50.0706C25.1698 47.7797 22.9773 44.4414 22.1153 40.6664H28.2916V50.0706ZM28.2916 35.5831H21.0224C20.5481 32.2108 20.5481 28.7887 21.0224 25.4164H28.2916V35.5831ZM28.2916 20.3331H22.1153C22.9773 16.5581 25.1698 13.2198 28.2916 10.9289V20.3331ZM48.4216 20.3331H44.8632C44.2666 18.0663 43.4139 15.8748 42.3216 13.801C44.8142 15.499 46.8978 17.7303 48.4216 20.3331ZM33.3749 10.9289C36.4967 13.2198 38.6891 16.5581 39.5511 20.3331H33.3749V10.9289ZM33.3749 50.0706V40.6664H39.5511C38.6891 44.4414 36.4967 47.7797 33.3749 50.0706ZM40.6441 35.5831H33.3749V25.4164H40.6441C41.1184 28.7887 41.1184 32.2108 40.6441 35.5831ZM42.3978 47.1985C43.4902 45.1247 44.3429 42.9332 44.9395 40.6664H48.4978C46.9741 43.2692 44.8904 45.5005 42.3978 47.1985ZM50.5057 35.5831H45.7782C45.9849 33.8966 46.0868 32.1989 46.0832 30.4998C46.086 28.8007 45.9842 27.103 45.7782 25.4164H50.5057C51.3871 28.748 51.3871 32.2515 50.5057 35.5831Z" fill="#B3B3B3"/>
</svg>
