<svg width="62" height="61" viewBox="0 0 62 61" fill="none" xmlns="http://www.w3.org/2000/svg">
<path d="M23.5418 30.5003H18.4585C17.7844 30.5003 17.1379 30.768 16.6612 31.2447C16.1846 31.7213 15.9168 32.3678 15.9168 33.0419C15.9168 33.716 16.1846 34.3625 16.6612 34.8392C17.1379 35.3158 17.7844 35.5836 18.4585 35.5836H23.5418C24.2159 35.5836 24.8624 35.3158 25.339 34.8392C25.8157 34.3625 26.0835 33.716 26.0835 33.0419C26.0835 32.3678 25.8157 31.7213 25.339 31.2447C24.8624 30.768 24.2159 30.5003 23.5418 30.5003ZM21.0001 25.4169H31.1668C31.8409 25.4169 32.4874 25.1491 32.964 24.6725C33.4407 24.1958 33.7085 23.5493 33.7085 22.8753C33.7085 22.2012 33.4407 21.5547 32.964 21.078C32.4874 20.6014 31.8409 20.3336 31.1668 20.3336H21.0001C20.3261 20.3336 19.6796 20.6014 19.2029 21.078C18.7263 21.5547 18.4585 22.2012 18.4585 22.8753C18.4585 23.5493 18.7263 24.1958 19.2029 24.6725C19.6796 25.1491 20.3261 25.4169 21.0001 25.4169ZM23.5418 40.6669H18.4585C17.7844 40.6669 17.1379 40.9347 16.6612 41.4114C16.1846 41.888 15.9168 42.5345 15.9168 43.2086C15.9168 43.8827 16.1846 44.5292 16.6612 45.0058C17.1379 45.4825 17.7844 45.7503 18.4585 45.7503H23.5418C24.2159 45.7503 24.8624 45.4825 25.339 45.0058C25.8157 44.5292 26.0835 43.8827 26.0835 43.2086C26.0835 42.5345 25.8157 41.888 25.339 41.4114C24.8624 40.9347 24.2159 40.6669 23.5418 40.6669ZM54.0418 30.5003H46.4168V7.62526C46.4186 7.17739 46.302 6.737 46.0788 6.34869C45.8557 5.96038 45.5338 5.63794 45.146 5.41401C44.7596 5.19093 44.3213 5.07349 43.8751 5.07349C43.429 5.07349 42.9907 5.19093 42.6043 5.41401L34.9793 9.78567L27.3543 5.41401C26.9679 5.19093 26.5296 5.07349 26.0835 5.07349C25.6373 5.07349 25.199 5.19093 24.8126 5.41401L17.1876 9.78567L9.56264 5.41401C9.17626 5.19093 8.73796 5.07349 8.29181 5.07349C7.84565 5.07349 7.40736 5.19093 7.02098 5.41401C6.63311 5.63794 6.3113 5.96038 6.08813 6.34869C5.86496 6.737 5.74836 7.17739 5.75014 7.62526V48.2919C5.75014 50.3142 6.55349 52.2537 7.98345 53.6836C9.41342 55.1136 11.3529 55.9169 13.3751 55.9169H48.9585C50.9808 55.9169 52.9202 55.1136 54.3502 53.6836C55.7801 52.2537 56.5835 50.3142 56.5835 48.2919V33.0419C56.5835 32.3678 56.3157 31.7213 55.839 31.2447C55.3624 30.768 54.7159 30.5003 54.0418 30.5003ZM13.3751 50.8336C12.7011 50.8336 12.0546 50.5658 11.5779 50.0892C11.1013 49.6125 10.8335 48.966 10.8335 48.2919V12.0223L15.9168 14.9198C16.3091 15.1247 16.7451 15.2317 17.1876 15.2317C17.6302 15.2317 18.0662 15.1247 18.4585 14.9198L26.0835 10.5482L33.7085 14.9198C34.1007 15.1247 34.5367 15.2317 34.9793 15.2317C35.4219 15.2317 35.8579 15.1247 36.2501 14.9198L41.3335 12.0223V48.2919C41.3404 49.159 41.4951 50.0185 41.791 50.8336H13.3751ZM51.5001 48.2919C51.5001 48.966 51.2324 49.6125 50.7557 50.0892C50.2791 50.5658 49.6326 50.8336 48.9585 50.8336C48.2844 50.8336 47.6379 50.5658 47.1612 50.0892C46.6846 49.6125 46.4168 48.966 46.4168 48.2919V35.5836H51.5001V48.2919ZM35.1318 41.099C34.9901 41.0028 34.8363 40.9259 34.6743 40.8703C34.523 40.7929 34.3597 40.7413 34.1914 40.7178C33.7831 40.636 33.3609 40.6558 32.962 40.7755C32.5631 40.8951 32.1998 41.111 31.9039 41.404C31.4394 41.8911 31.1762 42.5356 31.1668 43.2086C31.1628 43.539 31.2232 43.8671 31.3447 44.1744C31.4829 44.4833 31.6719 44.7668 31.9039 45.0132C32.1509 45.2377 32.4346 45.4182 32.7426 45.5469C33.0469 45.6814 33.3758 45.7508 33.7085 45.7508C34.0411 45.7508 34.3701 45.6814 34.6743 45.5469C34.9823 45.4182 35.266 45.2377 35.5131 45.0132C35.7486 44.7757 35.935 44.494 36.0615 44.1844C36.188 43.8747 36.2521 43.5431 36.2501 43.2086C36.2408 42.5356 35.9775 41.8911 35.5131 41.404C35.3923 41.2947 35.265 41.1928 35.1318 41.099ZM35.4876 31.2373C35.1909 30.9483 34.8279 30.7362 34.4304 30.6195C34.033 30.5028 33.613 30.485 33.2071 30.5677C32.8011 30.6504 32.4216 30.8311 32.1014 31.0939C31.7813 31.3568 31.5302 31.694 31.3701 32.0761C31.2119 32.4611 31.1508 32.8792 31.1919 33.2934C31.2331 33.7077 31.3754 34.1054 31.6063 34.4518C31.8373 34.7982 32.1497 35.0825 32.5163 35.2799C32.8828 35.4772 33.2922 35.5815 33.7085 35.5836C34.3826 35.5836 35.0291 35.3158 35.5057 34.8392C35.9824 34.3625 36.2501 33.716 36.2501 33.0419C36.2461 32.7098 36.177 32.3817 36.0468 32.0761C35.9244 31.7588 35.7334 31.4724 35.4876 31.2373Z" fill="#B3B3B3"/>
</svg>
