<svg width="62" height="61" viewBox="0 0 62 61" fill="none" xmlns="http://www.w3.org/2000/svg">
<path d="M56.5835 12.9118C56.5856 11.362 56.1277 9.84636 55.2676 8.55702C54.4076 7.26768 53.1842 6.26265 51.7524 5.66926C50.3207 5.07586 48.745 4.92082 47.225 5.22377C45.705 5.52671 44.3092 6.27402 43.2144 7.371L36.0723 14.5131L19.5769 9.02308C19.1377 8.88505 18.6692 8.86889 18.2216 8.97632C17.7739 9.08376 17.3639 9.31076 17.0352 9.63308L10.986 15.6314C10.6994 15.9214 10.4867 16.276 10.366 16.6654C10.2452 17.0548 10.2199 17.4676 10.2922 17.8688C10.3644 18.2701 10.5322 18.648 10.7812 18.9708C11.0303 19.2936 11.3533 19.5518 11.7231 19.7235L24.8889 25.6964L18.2806 32.3048L13.9344 30.1189C13.4651 29.865 12.9278 29.7651 12.3986 29.8335C11.8695 29.902 11.3752 30.1352 10.986 30.5002L6.48727 35.1006C6.01388 35.5768 5.74817 36.221 5.74817 36.8925C5.74817 37.5639 6.01388 38.2081 6.48727 38.6843L22.9827 55.1798C23.4589 55.6531 24.1031 55.9189 24.7746 55.9189C25.446 55.9189 26.0902 55.6531 26.5664 55.1798L31.1669 50.681C31.5483 50.3035 31.8005 49.8149 31.8872 49.2853C31.974 48.7557 31.8909 48.2122 31.6498 47.7327L29.4639 43.3864L36.0723 36.7781L42.0452 49.9439C42.2169 50.3137 42.475 50.6367 42.7978 50.8858C43.1206 51.1348 43.4986 51.3026 43.8999 51.3749C44.3011 51.4471 44.7139 51.4218 45.1033 51.3011C45.4927 51.1803 45.8473 50.9676 46.1373 50.681L52.1356 44.6827C52.4579 44.354 52.6849 43.9439 52.7924 43.4963C52.8998 43.0486 52.8836 42.5802 52.7456 42.141L47.2556 25.6456L54.296 18.4527C55.026 17.7272 55.6043 16.8636 55.997 15.9123C56.3898 14.961 56.5891 13.941 56.5835 12.9118ZM50.6869 14.8689L42.4519 23.1039C42.1295 23.4326 41.9025 23.8427 41.7951 24.2903C41.6876 24.738 41.7038 25.2064 41.8419 25.6456L47.3319 42.1156L45.0443 44.4031L39.0714 31.2627C38.9019 30.8895 38.6446 30.5628 38.3216 30.3105C37.9985 30.0583 37.6192 29.8879 37.216 29.8139C36.8095 29.7397 36.3911 29.7658 35.9969 29.8898C35.6027 30.0138 35.2447 30.232 34.9539 30.5256L24.4823 41.0989C24.1063 41.4745 23.8575 41.9584 23.7709 42.4827C23.6843 43.007 23.7642 43.5453 23.9994 44.0218L26.0835 48.2918L24.6602 49.7152L11.8756 36.9052L13.3752 35.5835L17.7214 37.7693C18.198 38.0045 18.7362 38.0844 19.2605 37.9978C19.7848 37.9111 20.2688 37.6624 20.6444 37.2864L31.1669 26.7131C31.4589 26.4233 31.6762 26.067 31.8002 25.6747C31.9242 25.2824 31.9511 24.8659 31.8786 24.461C31.8061 24.056 31.6364 23.6747 31.384 23.3498C31.1317 23.0248 30.8042 22.766 30.4298 22.5956L17.1877 16.6227L19.4752 14.3352L35.9452 19.8252C36.3844 19.9632 36.8528 19.9794 37.3004 19.8719C37.7481 19.7645 38.1582 19.5375 38.4869 19.2152L46.7219 10.9802C46.9751 10.7212 47.2776 10.5154 47.6115 10.3749C47.9454 10.2344 48.304 10.162 48.6662 10.162C49.0285 10.162 49.3871 10.2344 49.721 10.3749C50.0549 10.5154 50.3573 10.7212 50.6106 10.9802C50.8757 11.2258 51.0854 11.5252 51.2256 11.8583C51.3659 12.1914 51.4335 12.5505 51.4239 12.9118C51.4377 13.2707 51.3796 13.6287 51.253 13.9648C51.1265 14.3009 50.934 14.6083 50.6869 14.8689Z" fill="#B3B3B3"/>
</svg>
