<svg width="61" height="61" viewBox="0 0 61 61" fill="none" xmlns="http://www.w3.org/2000/svg">
<path d="M38.125 43.2083H40.6667C41.3408 43.2083 41.9873 42.9405 42.4639 42.4638C42.9406 41.9872 43.2084 41.3407 43.2084 40.6666C43.2084 39.9925 42.9406 39.346 42.4639 38.8694C41.9873 38.3927 41.3408 38.1249 40.6667 38.1249H38.125C37.4509 38.1249 36.8045 38.3927 36.3278 38.8694C35.8511 39.346 35.5834 39.9925 35.5834 40.6666C35.5834 41.3407 35.8511 41.9872 36.3278 42.4638C36.8045 42.9405 37.4509 43.2083 38.125 43.2083ZM53.375 43.2083V22.8749C53.375 20.8526 52.5717 18.9132 51.1417 17.4832C49.7118 16.0533 47.7723 15.2499 45.75 15.2499H33.0417V10.1666H43.2084C43.8825 10.1666 44.5289 9.8988 45.0056 9.42215C45.4823 8.94549 45.75 8.29901 45.75 7.62492C45.75 6.95083 45.4823 6.30434 45.0056 5.82769C44.5289 5.35103 43.8825 5.08325 43.2084 5.08325H17.7917C17.1176 5.08325 16.4711 5.35103 15.9945 5.82769C15.5178 6.30434 15.25 6.95083 15.25 7.62492C15.25 8.29901 15.5178 8.94549 15.9945 9.42215C16.4711 9.8988 17.1176 10.1666 17.7917 10.1666H27.9584V15.2499H15.25C13.2278 15.2499 11.2883 16.0533 9.85834 17.4832C8.42837 18.9132 7.62503 20.8526 7.62503 22.8749V43.2083C7.62896 44.3877 7.90646 45.5502 8.43569 46.6042C8.96492 47.6583 9.73146 48.5752 10.675 49.2828L8.36211 51.5703C8.12388 51.8066 7.9348 52.0877 7.80576 52.3975C7.67673 52.7072 7.61029 53.0394 7.61029 53.3749C7.61029 53.7104 7.67673 54.0427 7.80576 54.3524C7.9348 54.6621 8.12388 54.9432 8.36211 55.1795C8.59839 55.4177 8.8795 55.6068 9.18923 55.7359C9.49895 55.8649 9.83116 55.9313 10.1667 55.9313C10.5022 55.9313 10.8344 55.8649 11.1442 55.7359C11.4539 55.6068 11.735 55.4177 11.9713 55.1795L16.2921 50.8333H44.7079L49.0288 55.1795C49.2651 55.4177 49.5462 55.6068 49.8559 55.7359C50.1656 55.8649 50.4978 55.9313 50.8334 55.9313C51.1689 55.9313 51.5011 55.8649 51.8108 55.7359C52.1206 55.6068 52.4017 55.4177 52.6379 55.1795C52.8762 54.9432 53.0653 54.6621 53.1943 54.3524C53.3233 54.0427 53.3898 53.7104 53.3898 53.3749C53.3898 53.0394 53.3233 52.7072 53.1943 52.3975C53.0653 52.0877 52.8762 51.8066 52.6379 51.5703L50.325 49.2828C51.2686 48.5752 52.0351 47.6583 52.5644 46.6042C53.0936 45.5502 53.3711 44.3877 53.375 43.2083ZM12.7084 22.8749C12.7084 22.2008 12.9761 21.5543 13.4528 21.0777C13.9295 20.601 14.5759 20.3333 15.25 20.3333H27.9584V30.4999H12.7084V22.8749ZM48.2917 43.2083C48.2917 43.8823 48.0239 44.5288 47.5473 45.0055C47.0706 45.4821 46.4241 45.7499 45.75 45.7499H15.25C14.5759 45.7499 13.9295 45.4821 13.4528 45.0055C12.9761 44.5288 12.7084 43.8823 12.7084 43.2083V35.5833H48.2917V43.2083ZM48.2917 30.4999H33.0417V20.3333H45.75C46.4241 20.3333 47.0706 20.601 47.5473 21.0777C48.0239 21.5543 48.2917 22.2008 48.2917 22.8749V30.4999ZM20.3334 43.2083H22.875C23.5491 43.2083 24.1956 42.9405 24.6723 42.4638C25.1489 41.9872 25.4167 41.3407 25.4167 40.6666C25.4167 39.9925 25.1489 39.346 24.6723 38.8694C24.1956 38.3927 23.5491 38.1249 22.875 38.1249H20.3334C19.6593 38.1249 19.0128 38.3927 18.5361 38.8694C18.0595 39.346 17.7917 39.9925 17.7917 40.6666C17.7917 41.3407 18.0595 41.9872 18.5361 42.4638C19.0128 42.9405 19.6593 43.2083 20.3334 43.2083Z" fill="#B3B3B3"/>
</svg>
