<svg width="33" height="32" viewBox="0 0 33 32" fill="none" xmlns="http://www.w3.org/2000/svg">
<g clip-path="url(#clip0_111_194)">
<path d="M28.9734 5.52668L23.64 0.193344C23.5777 0.131557 23.5039 0.0826734 23.4226 0.049497C23.3414 0.0163206 23.2544 -0.000496119 23.1667 1.11429e-05H5.83337C5.30294 1.11429e-05 4.79423 0.210725 4.41916 0.585798C4.04409 0.96087 3.83337 1.46958 3.83337 2.00001V30C3.83337 30.5304 4.04409 31.0392 4.41916 31.4142C4.79423 31.7893 5.30294 32 5.83337 32H27.1667C27.6971 32 28.2058 31.7893 28.5809 31.4142C28.956 31.0392 29.1667 30.5304 29.1667 30V6.00001C29.1672 5.91227 29.1504 5.8253 29.1172 5.74407C29.084 5.66285 29.0352 5.58897 28.9734 5.52668ZM23.8334 2.27334L26.8934 5.33334H24.5C24.3232 5.33334 24.1537 5.26311 24.0286 5.13808C23.9036 5.01306 23.8334 4.84349 23.8334 4.66668V2.27334ZM27.8334 30C27.8334 30.1768 27.7631 30.3464 27.6381 30.4714C27.5131 30.5964 27.3435 30.6667 27.1667 30.6667H5.83337C5.65656 30.6667 5.48699 30.5964 5.36197 30.4714C5.23695 30.3464 5.16671 30.1768 5.16671 30V2.00001C5.16671 1.8232 5.23695 1.65363 5.36197 1.52861C5.48699 1.40358 5.65656 1.33334 5.83337 1.33334H22.5V4.66668C22.5 5.19711 22.7108 5.70582 23.0858 6.08089C23.4609 6.45597 23.9696 6.66668 24.5 6.66668H27.8334V30Z" fill="#D8D8D8"/>
<path d="M24.5 12H11.1666V13.3333H24.5V12Z" fill="#D8D8D8"/>
<path d="M24.5 16H8.5V17.3333H24.5V16Z" fill="#D8D8D8"/>
<path d="M24.5 20H8.5V21.3333H24.5V20Z" fill="#D8D8D8"/>
<path d="M19.1667 24H8.5V25.3333H19.1667V24Z" fill="#D8D8D8"/>
<path d="M24.5 24H23.1666V25.3333H24.5V24Z" fill="#D8D8D8"/>
<path d="M21.8333 24H20.5V25.3333H21.8333V24Z" fill="#D8D8D8"/>
</g>
<defs>
<clipPath id="clip0_111_194">
<rect width="32" height="32" fill="white" transform="translate(0.5)"/>
</clipPath>
</defs>
</svg>
