<svg width="33" height="32" viewBox="0 0 33 32" fill="none" xmlns="http://www.w3.org/2000/svg">
<g clip-path="url(#clip0_111_133)">
<path d="M22.7 2.9V14.3H22.4L17.9 15V22C17.9 24.8 19.5 28.4 21.9 30.1C22 30.2 22.1 30.2 22.1 30.3C21.8 30.7 21.3 30.9 20.7 30.9H3.4C2.4 30.9 1.5 30 1.5 29V3C1.5 1.9 2.3 1 3.4 1H20.8C21.8 1 22.7 1.9 22.7 2.9Z" stroke="#D8D8D8" stroke-width="1.5" stroke-miterlimit="10" stroke-linecap="round" stroke-linejoin="round"/>
<path d="M4.30005 5.1001H10.3" stroke="#D8D8D8" stroke-width="1.5" stroke-miterlimit="10" stroke-linecap="round" stroke-linejoin="round"/>
<path d="M4.30005 9.3999H15" stroke="#D8D8D8" stroke-width="1.5" stroke-miterlimit="10" stroke-linecap="round" stroke-linejoin="round"/>
<path d="M4.30005 13.7002H15" stroke="#D8D8D8" stroke-width="1.5" stroke-miterlimit="10" stroke-linecap="round" stroke-linejoin="round"/>
<path d="M15.1 18H4.30005" stroke="#D8D8D8" stroke-width="1.5" stroke-miterlimit="10" stroke-linecap="round" stroke-linejoin="round"/>
<path d="M15.1 22.2998H4.30005" stroke="#D8D8D8" stroke-width="1.5" stroke-miterlimit="10" stroke-linecap="round" stroke-linejoin="round"/>
<path d="M4.09998 26.6001H15.1" stroke="#D8D8D8" stroke-width="1.5" stroke-miterlimit="10" stroke-linecap="round" stroke-linejoin="round"/>
<path d="M31.5 15V22C31.5 25.8 28.4 31 24.7 31C23.7 31 22.8 30.6 21.9 30C19.5 28.3 17.9 24.8 17.9 21.9V15L22.3 14.3L24.5 14L31.5 15Z" stroke="#D8D8D8" stroke-width="1.5" stroke-miterlimit="10" stroke-linecap="round" stroke-linejoin="round"/>
<path d="M21.8 23.2998L23.2001 24.6998L27.6 20.2998" stroke="#D8D8D8" stroke-width="1.5" stroke-miterlimit="10" stroke-linecap="round" stroke-linejoin="round"/>
</g>
<defs>
<clipPath id="clip0_111_133">
<rect width="32" height="32" fill="white" transform="translate(0.5)"/>
</clipPath>
</defs>
</svg>
